Hanif_Deep_5_0_grf.mot
version=1
nRows=47
nColumns=19
inDegrees=yes
endheader
time	right_ground_force_vx	right_ground_force_vy	right_ground_force_vz	right_ground_force_px	right_ground_force_py	right_ground_force_pz	right_ground_torque_x	right_ground_torque_y	right_ground_torque_z	left_ground_force_vx	left_ground_force_vy	left_ground_force_vz	left_ground_force_px	left_ground_force_py	left_ground_force_pz	left_ground_torque_x	left_ground_torque_y	left_ground_torque_z
2.025000	-12.348500	260.781000	34.995400	0.230764	0.000000	-1.414430	-24.037200	1.091380	8.465400	-2.772820	256.426000	-35.598000	0.237918	0.000000	-0.988040	21.879700	-5.184970	10.663000
2.030000	-12.212000	255.467000	34.993900	0.232077	0.000000	-1.413220	-23.860000	1.025380	8.643990	-3.354420	253.352000	-35.971300	0.238438	0.000000	-0.988074	21.642900	-5.061740	10.693800
2.035000	-12.512200	254.897000	35.402000	0.231879	0.000000	-1.413460	-23.744700	0.911050	8.569920	-4.382580	254.621000	-36.204900	0.237271	0.000000	-0.987462	21.621200	-4.990480	10.444100
2.040000	-12.012300	255.706000	35.950100	0.232751	0.000000	-1.414710	-23.496600	0.968767	8.830600	-4.808310	250.206000	-36.773000	0.238167	0.000000	-0.987894	21.369700	-4.886870	10.534100
2.045000	-12.694600	254.968000	36.100800	0.231493	0.000000	-1.413910	-23.640400	0.929280	8.487740	-5.022320	248.714000	-37.278300	0.237914	0.000000	-0.987004	21.026800	-4.797200	10.423800
2.050000	-12.747700	253.483000	36.237800	0.231661	0.000000	-1.413620	-23.578100	0.880712	8.483920	-5.115670	248.161000	-37.434700	0.238137	0.000000	-0.986960	20.970300	-4.672720	10.449200
2.055000	-12.379800	252.996000	37.090000	0.232118	0.000000	-1.413070	-23.667900	0.854646	8.594420	-5.991380	244.466000	-38.100900	0.237412	0.000000	-0.987086	20.715400	-4.572310	10.159300
2.060000	-11.735900	253.619000	37.951100	0.231335	0.000000	-1.413890	-23.505100	0.856220	8.415020	-5.742530	242.913000	-39.737500	0.237189	0.000000	-0.987209	20.607500	-4.470220	10.085900
2.065000	-11.612500	251.910000	38.187300	0.232655	0.000000	-1.413590	-23.425600	0.851551	8.706830	-5.642000	240.691000	-40.082400	0.236695	0.000000	-0.987131	20.400900	-4.510390	9.907280
2.070000	-10.807000	250.278000	39.833300	0.232142	0.000000	-1.413030	-23.404100	0.861233	8.545140	-5.037590	238.997000	-40.080400	0.237368	0.000000	-0.987260	20.271100	-4.393800	9.990160
2.075000	-10.877500	251.441000	40.624700	0.231993	0.000000	-1.413380	-23.427300	0.907052	8.563650	-5.150380	239.008000	-41.202300	0.236464	0.000000	-0.987557	20.345500	-4.364550	9.801580
2.080000	-10.164900	249.391000	41.340400	0.232023	0.000000	-1.412450	-23.454900	0.797677	8.495620	-5.126440	237.957000	-41.259900	0.236473	0.000000	-0.986280	19.949500	-4.219450	9.745570
2.085000	-9.710010	250.968000	42.519800	0.232220	0.000000	-1.413500	-23.332500	0.750177	8.597630	-5.497510	240.864000	-41.785800	0.235776	0.000000	-0.986079	20.150100	-4.152110	9.675980
2.090000	-9.845600	249.327000	42.861300	0.231755	0.000000	-1.413680	-23.136400	0.703201	8.428420	-4.938810	238.551000	-42.659300	0.236225	0.000000	-0.986571	20.061500	-4.114070	9.727280
2.095000	-9.023750	247.262000	43.611400	0.232437	0.000000	-1.412430	-23.240100	0.618215	8.528000	-5.265140	239.031000	-43.438000	0.236159	0.000000	-0.986629	20.122200	-3.995680	9.734760
2.100000	-8.974000	244.367000	43.946800	0.231778	0.000000	-1.412180	-23.035100	0.705323	8.294980	-5.426840	236.681000	-42.885100	0.237560	0.000000	-0.987658	20.174700	-3.937040	9.978230
2.105000	-8.741510	243.155000	44.504300	0.233191	0.000000	-1.413140	-22.684100	0.641480	8.607020	-5.909460	238.627000	-44.109900	0.237287	0.000000	-0.986460	20.065000	-3.884320	10.010900
2.110000	-8.217170	243.970000	44.868600	0.232223	0.000000	-1.414070	-22.521000	0.537877	8.365260	-6.321550	239.128000	-44.083300	0.237471	0.000000	-0.986825	20.203500	-3.821540	10.067000
2.115000	-7.670200	243.667000	45.421800	0.231753	0.000000	-1.412780	-22.800600	0.541981	8.240380	-6.528800	240.157000	-44.976600	0.236606	0.000000	-0.985732	20.028800	-3.703740	9.894250
2.120000	-7.157640	242.008000	45.826000	0.232119	0.000000	-1.412960	-22.596100	0.551037	8.282150	-6.607410	238.021000	-45.780800	0.237334	0.000000	-0.986403	20.011300	-3.492040	9.992780
2.125000	-5.956290	240.599000	46.767800	0.233007	0.000000	-1.411770	-22.737700	0.530961	8.453790	-6.361310	237.278000	-46.128500	0.236493	0.000000	-0.985766	19.789500	-3.416650	9.752920
2.130000	-5.377350	240.220000	47.876100	0.231964	0.000000	-1.412450	-22.530900	0.552860	8.193770	-6.164160	234.741000	-46.644100	0.237031	0.000000	-0.986208	19.675800	-3.223510	9.778320
2.135000	-4.886410	241.140000	48.513700	0.232102	0.000000	-1.413480	-22.362200	0.580588	8.262190	-6.333750	234.352000	-47.726300	0.237117	0.000000	-0.986472	19.712600	-3.281120	9.835090
2.140000	-3.975910	241.288000	49.152000	0.232160	0.000000	-1.413220	-22.426500	0.433256	8.245180	-5.005970	233.315000	-48.863500	0.236779	0.000000	-0.985822	19.438100	-3.119000	9.697590
2.145000	-3.309030	239.843000	49.625000	0.232135	0.000000	-1.411730	-22.640100	0.344269	8.173030	-5.359940	230.472000	-48.570500	0.236326	0.000000	-0.985921	19.231600	-2.981960	9.466150
2.150000	-2.268640	241.836000	50.013400	0.233259	0.000000	-1.414500	-22.149800	0.330694	8.498500	-4.871670	231.137000	-48.145100	0.236040	0.000000	-0.985593	19.195500	-2.850780	9.369150
2.155000	-2.097710	239.070000	50.858100	0.232921	0.000000	-1.413230	-22.196600	0.228382	8.316470	-4.870100	228.337000	-48.633000	0.236420	0.000000	-0.985506	18.945700	-2.816850	9.378900
2.160000	-1.484840	238.891000	51.478400	0.231999	0.000000	-1.412520	-22.344200	0.340379	8.102410	-5.455540	226.388000	-49.164600	0.236383	0.000000	-0.985585	18.815900	-2.732960	9.316380
2.165000	-1.031250	236.852000	51.506300	0.232439	0.000000	-1.412480	-22.158900	0.295990	8.131930	-5.172440	225.318000	-49.535500	0.236108	0.000000	-0.984992	18.585800	-2.645320	9.203930
2.170000	-0.288580	236.194000	51.590200	0.232399	0.000000	-1.412520	-22.082300	0.263042	8.081000	-5.699650	223.956000	-49.028000	0.235842	0.000000	-0.985327	18.560500	-2.599800	9.083710
2.175000	-0.766797	231.729000	51.149700	0.232824	0.000000	-1.410630	-22.106700	0.264931	8.051420	-5.745740	221.366000	-49.273900	0.235722	0.000000	-0.985621	18.413200	-2.529130	8.968060
2.180000	-0.304451	230.036000	50.595700	0.232340	0.000000	-1.412270	-21.564400	0.198083	7.848980	-5.333780	218.717000	-49.152400	0.236809	0.000000	-0.985629	18.187400	-2.467320	9.110890
2.185000	0.045646	227.412000	50.583200	0.232362	0.000000	-1.411300	-21.535300	0.234154	7.774630	-5.787490	218.548000	-49.108500	0.235326	0.000000	-0.985141	18.072100	-2.334330	8.741530
2.190000	-0.188353	225.810000	50.945600	0.231798	0.000000	-1.412650	-21.080900	0.153920	7.584480	-6.337660	214.777000	-49.259000	0.235624	0.000000	-0.984632	17.663500	-2.161200	8.668050
2.195000	0.064307	225.758000	51.183200	0.232346	0.000000	-1.412380	-21.134900	0.075807	7.693450	-5.685070	213.068000	-49.803500	0.234969	0.000000	-0.984402	17.458400	-2.080210	8.452350
2.200000	-0.076581	226.658000	50.566200	0.232537	0.000000	-1.413060	-21.065500	0.038883	7.752000	-5.713490	211.766000	-49.599400	0.234370	0.000000	-0.983832	17.231000	-2.044090	8.264630
2.205000	-0.101958	223.419000	51.138300	0.231663	0.000000	-1.412980	-20.783300	0.204592	7.493750	-5.841790	208.668000	-49.460300	0.235297	0.000000	-0.984612	17.146600	-1.950940	8.354680
2.210000	0.360971	221.731000	51.569000	0.231445	0.000000	-1.413280	-20.556700	0.086055	7.361770	-6.141250	207.569000	-49.262700	0.234616	0.000000	-0.984220	16.981300	-1.934380	8.167310
2.215000	-0.029801	219.819000	51.146400	0.231206	0.000000	-1.412720	-20.505700	0.078075	7.249760	-5.900660	206.985000	-49.348300	0.234919	0.000000	-0.985542	17.198900	-1.790200	8.181460
2.220000	-0.016200	218.143000	51.164200	0.230776	0.000000	-1.414440	-19.973600	0.077020	7.101290	-5.958670	206.256000	-49.155700	0.234499	0.000000	-0.984015	16.821900	-1.696980	8.039310
2.225000	-0.059054	217.566000	51.290500	0.230664	0.000000	-1.414050	-20.006100	-0.039278	7.034150	-5.732740	204.835000	-49.578300	0.234090	0.000000	-0.983532	16.603400	-1.693760	7.913670
2.230000	-0.524485	217.214000	51.292500	0.230160	0.000000	-1.414540	-19.869900	-0.066695	6.912120	-6.464640	206.300000	-49.118000	0.233712	0.000000	-0.982334	16.484400	-1.591920	7.850270
2.235000	-0.810796	217.559000	51.617400	0.231332	0.000000	-1.415740	-19.643500	-0.195218	7.171250	-6.268320	203.259000	-48.962300	0.233054	0.000000	-0.983369	16.449000	-1.551300	7.603310
2.240000	-1.191580	214.865000	51.609000	0.230013	0.000000	-1.414930	-19.576200	-0.263274	6.783680	-6.062840	201.246000	-48.065200	0.233402	0.000000	-0.982836	16.176200	-1.545760	7.590360
2.245000	-1.560380	212.803000	51.513700	0.229416	0.000000	-1.415000	-19.376200	-0.272047	6.595160	-6.497630	199.969000	-48.246100	0.233030	0.000000	-0.982020	15.916400	-1.430130	7.458430
2.250000	-2.122690	214.740000	51.142600	0.230854	0.000000	-1.416650	-19.199700	-0.511180	6.924910	-6.363600	198.102000	-47.557200	0.232709	0.000000	-0.982753	15.907900	-1.321320	7.292110
2.255000	-2.424920	210.872000	50.926400	0.231033	0.000000	-1.415670	-19.061800	-0.547003	6.846450	-6.801860	195.178000	-47.029100	0.231755	0.000000	-0.984296	15.979500	-1.177330	6.974670
